<?xml version="1.0" ?><svg fill="none" height="48" viewBox="0 0 48 48" width="48" xmlns="http://www.w3.org/2000/svg"><rect fill="white" fill-opacity="0.01" height="48" width="48"/><rect fill="#2F88FF" height="24" rx="2" stroke="black" stroke-width="4" width="30" x="9" y="18"/><circle cx="17" cy="26" fill="white" r="2"/><circle cx="31" cy="26" fill="white" r="2"/><path d="M20 32C18.8954 32 18 32.8954 18 34C18 35.1046 18.8954 36 20 36V32ZM28 36C29.1046 36 30 35.1046 30 34C30 32.8954 29.1046 32 28 32V36ZM20 36H28V32H20V36Z" fill="white"/><path d="M24 10V18" stroke="black" stroke-linecap="round" stroke-linejoin="round" stroke-width="4"/><path d="M4 26V34" stroke="black" stroke-linecap="round" stroke-linejoin="round" stroke-width="4"/><path d="M44 26V34" stroke="black" stroke-linecap="round" stroke-linejoin="round" stroke-width="4"/><circle cx="24" cy="8" r="2" stroke="black" stroke-width="4"/></svg>