<?xml version="1.0" ?><svg style="enable-background:new 0 0 512 512;" version="1.1" viewBox="0 0 512 512" xml:space="preserve" xmlns="http://www.w3.org/2000/svg" xmlns:xlink="http://www.w3.org/1999/xlink"><g id="_x31_64_x2C__Add_x2C__Contact_x2C__User_x2C__Twitter"><g id="XMLID_5041_"><path d="M168.988,261.462c-43.274,0-78.481-35.207-78.481-78.481    s35.207-78.481,78.481-78.481s78.481,35.207,78.481,78.481S212.263,261.462,168.988,261.462z M168.988,124.5    c-32.247,0-58.481,26.234-58.481,58.481s26.234,58.481,58.481,58.481s58.481-26.234,58.481-58.481S201.235,124.5,168.988,124.5z" id="XMLID_8594_" style="fill:#3E3C3C;"/></g><g id="XMLID_5042_"><path d="M475.023,407.5H301c-5.522,0-10-4.478-10-10v-13.201    c0-35.122-15.16-68.564-41.594-91.753c-2.165-1.898-3.406-4.639-3.406-7.518s1.241-5.619,3.405-7.518    c25.894-22.714,59.137-35.224,93.606-35.224c78.306,0,142.012,63.706,142.012,142.012V397.5    C485.023,403.022,480.546,407.5,475.023,407.5z M311,387.5h154.023v-3.201c0-67.277-54.734-122.012-122.012-122.012    c-25.936,0-51.063,8.242-71.847,23.397C296.611,312.06,311,347.381,311,384.299V387.5z" id="XMLID_8591_" style="fill:#F05026;"/></g><g id="XMLID_5043_"><path d="M301,407.5H36.977c-5.523,0-10-4.478-10-10v-13.201    c0-78.306,63.706-142.012,142.012-142.012c34.469,0,67.713,12.509,93.606,35.224l0,0C293.356,304.496,311,343.419,311,384.299    V397.5C311,403.022,306.522,407.5,301,407.5z M46.977,387.5H291v-3.201c0-35.122-15.16-68.564-41.595-91.753l0,0    c-22.243-19.513-50.803-30.259-80.417-30.259c-67.277,0-122.012,54.734-122.012,122.012V387.5z" id="XMLID_8588_" style="fill:#3E3C3C;"/></g><g id="XMLID_5044_"><path d="M343.012,261.462c-43.274,0-78.481-35.207-78.481-78.481    s35.207-78.481,78.481-78.481s78.48,35.207,78.48,78.481S386.286,261.462,343.012,261.462z M343.012,124.5    c-32.247,0-58.481,26.234-58.481,58.481s26.234,58.481,58.481,58.481c32.246,0,58.48-26.234,58.48-58.481    S375.258,124.5,343.012,124.5z" id="XMLID_8585_" style="fill:#F05026;"/></g></g><g id="Layer_1"/></svg>